<?xml version="1.0" standalone="no"?>
<!DOCTYPE svg PUBLIC "-//W3C//DTD SVG 20010904//EN"
 "http://www.w3.org/TR/2001/REC-SVG-20010904/DTD/svg10.dtd">
<svg version="1.0" xmlns="http://www.w3.org/2000/svg"
 width="150.000000pt" height="150.000000pt" viewBox="0 0 150.000000 150.000000"
 preserveAspectRatio="xMidYMid meet">
<metadata>
Created by potrace 1.11, written by Peter Selinger 2001-2013
</metadata>
<g transform="translate(0.000000,150.000000) scale(0.100000,-0.100000)"
fill="#000000" stroke="none">
<path d="M939 1408 c-5 -18 -6 -38 -1 -34 7 8 12 36 6 36 -2 0 -4 -1 -5 -2z"/>
<path d="M880 1391 c0 -7 -5 -9 -12 -5 -7 5 -8 3 -3 -5 5 -9 10 -10 18 -2 6 6
8 14 4 18 -4 3 -7 1 -7 -6z"/>
<path d="M905 1384 c-9 -13 -26 -20 -58 -23 -5 -1 -5 -7 -2 -13 4 -7 -1 -4
-10 7 -17 20 -17 19 -13 -7 4 -23 3 -25 -13 -15 -13 8 -15 13 -6 19 8 5 8 8 1
8 -6 0 -18 -8 -25 -17 -8 -9 -9 -14 -3 -10 7 4 14 1 17 -7 6 -15 -9 -16 -32
-2 -10 7 -12 6 -6 -4 6 -10 4 -12 -9 -7 -9 4 -15 3 -12 -1 3 -5 -4 -16 -15
-25 -10 -9 -19 -22 -19 -28 0 -7 9 0 21 15 11 14 28 26 37 25 12 0 10 -3 -6
-10 -14 -5 -20 -13 -16 -20 4 -7 3 -9 -4 -5 -6 3 -13 -3 -17 -14 -4 -11 -10
-18 -15 -15 -4 3 -11 -2 -14 -11 -9 -23 -8 -26 7 -18 9 6 9 4 0 -6 -11 -12
-15 -11 -26 4 -12 16 -13 15 -13 -11 1 -20 -3 -27 -14 -25 -12 3 -13 1 -2 -9
6 -7 12 -17 12 -22 0 -4 -6 -5 -12 -1 -9 5 -9 2 1 -9 15 -19 26 -23 15 -5 -4
7 -3 8 5 4 16 -10 2 -29 -16 -22 -9 4 -13 1 -10 -6 2 -7 9 -12 14 -11 13 3 11
-36 -2 -45 -6 -4 -11 -22 -12 -41 -2 -30 -1 -32 12 -15 13 18 14 17 8 -5 -5
-19 -3 -22 8 -16 12 8 12 6 0 -8 -15 -19 -2 -24 16 -6 9 9 11 7 8 -7 -1 -11
-7 -18 -12 -17 -5 1 -10 -4 -10 -12 0 -8 3 -12 7 -10 3 2 6 -9 5 -25 0 -21 -3
-26 -12 -19 -6 6 -26 12 -44 14 -28 4 -30 3 -14 -9 15 -11 16 -13 1 -13 -9 0
-16 5 -16 10 0 5 -8 3 -17 -4 -16 -13 -17 -12 -4 4 12 15 12 20 1 30 -8 8 -11
8 -7 1 8 -14 -41 -13 -62 0 -10 6 -12 5 -7 -2 4 -7 1 -12 -6 -12 -9 0 -9 -3
-2 -8 17 -11 24 -41 12 -48 -6 -4 -8 -3 -5 3 4 6 -1 17 -11 24 -15 13 -16 12
-3 -3 11 -15 11 -18 0 -18 -8 -1 -3 -8 11 -16 15 -9 18 -13 6 -9 -17 5 -17 3
-5 -11 12 -15 11 -16 -11 -11 -14 4 -19 4 -12 1 10 -5 10 -9 0 -22 -8 -10 -9
-13 -1 -9 6 4 14 3 18 -3 4 -6 11 -8 16 -5 9 6 13 -7 10 -35 -2 -13 -1 -13 8
0 5 8 7 18 4 24 -4 5 -1 6 7 1 7 -4 16 -2 21 6 7 11 9 11 9 1 0 -7 5 -10 10
-7 6 4 7 11 4 17 -4 7 -2 8 5 4 6 -4 9 -12 6 -17 -11 -16 7 -10 21 9 13 16 14
16 8 0 -5 -14 -1 -18 16 -18 14 0 19 -4 15 -12 -4 -7 0 -5 8 5 13 15 15 15 20
2 4 -9 13 -12 24 -9 15 5 15 4 3 -4 -9 -7 -19 -7 -25 -2 -8 7 -12 5 -12 -5 0
-7 3 -14 6 -13 21 2 31 -4 25 -14 -4 -7 -3 -8 5 -4 6 4 9 13 5 19 -3 7 4 1 15
-12 12 -13 21 -19 21 -14 0 5 -5 14 -11 20 -8 8 -7 13 2 18 7 5 10 4 6 -2 -4
-6 2 -13 12 -16 13 -3 21 2 24 15 3 11 10 17 15 14 6 -3 13 0 16 6 3 7 3 2 0
-12 -4 -18 -2 -21 4 -11 8 11 12 10 22 -5 9 -16 11 -16 6 -2 -3 10 -1 20 4 23
9 6 14 -9 11 -29 -1 -5 5 -6 14 -2 9 3 13 2 10 -4 -3 -6 -1 -10 6 -10 7 0 9
-3 6 -6 -3 -4 -2 -15 4 -26 17 -32 19 -57 4 -52 -16 6 -29 -12 -15 -21 5 -3
10 -11 10 -16 0 -6 -5 -7 -12 -3 -7 4 -8 3 -4 -5 4 -6 11 -9 15 -7 4 3 13 0
21 -6 12 -8 12 -9 -2 -4 -13 4 -18 0 -18 -13 0 -11 6 -22 13 -24 9 -4 9 -6 -1
-6 -7 -1 -10 -6 -6 -13 5 -7 2 -9 -9 -5 -8 3 -18 0 -20 -7 -4 -9 3 -12 19 -10
20 2 23 0 14 -11 -7 -8 -9 -19 -5 -24 3 -7 0 -8 -10 -5 -13 5 -13 9 -3 23 11
14 11 14 -4 3 -18 -15 -16 -50 4 -64 9 -6 6 -7 -7 -4 -16 5 -21 1 -22 -16 -2
-18 0 -20 7 -8 8 12 9 10 7 -7 -2 -12 -7 -26 -12 -30 -4 -5 -5 -2 -1 5 4 6 2
12 -5 12 -7 0 -9 -9 -6 -22 6 -22 6 -22 -8 -4 -18 24 -20 13 -3 -17 10 -21 10
-21 -7 -7 -17 14 -18 14 -5 -10 7 -14 14 -25 14 -26 1 0 -6 -9 -14 -19 -13
-17 -13 -18 0 -10 8 5 23 8 34 6 11 -1 16 2 12 8 -5 7 -1 8 9 4 9 -3 12 -9 7
-12 -12 -8 -11 -41 1 -41 5 0 7 7 3 15 -5 14 -1 17 21 14 4 0 11 8 15 18 7 16
8 16 5 -2 -2 -11 -9 -19 -18 -17 -8 2 -11 0 -6 -4 10 -11 47 -13 41 -2 -3 4 0
8 6 8 6 0 8 6 4 12 -4 8 -3 10 2 5 5 -5 9 -13 9 -18 0 -5 5 -8 10 -7 6 2 9 6
8 10 -9 26 -5 48 8 48 8 0 8 -4 0 -14 -9 -11 -5 -17 16 -31 28 -18 28 -18 10
2 -9 11 -14 23 -11 26 4 4 1 13 -6 22 -13 15 -2 21 16 7 5 -4 1 1 -8 10 -10 9
-24 18 -31 21 -9 3 -9 7 0 19 7 8 11 18 8 21 -3 4 -2 5 2 2 12 -10 12 -35 0
-28 -7 3 -8 2 -4 -2 4 -5 14 -10 23 -11 13 -2 13 0 2 13 -7 9 -12 18 -10 20 6
9 1 33 -7 28 -5 -3 -12 -1 -16 4 -3 6 3 8 13 6 10 -2 25 1 33 7 11 8 11 9 -3
4 -10 -3 -20 -1 -23 4 -4 6 1 10 9 10 10 0 13 6 9 17 -4 10 -2 14 4 10 5 -3
10 1 10 9 0 8 -6 13 -13 10 -8 -3 -11 0 -8 9 3 8 12 11 20 8 10 -4 12 0 8 11
-3 9 -3 24 2 34 4 9 8 32 8 50 1 18 8 37 16 42 8 5 11 10 5 10 -23 0 -32 -17
-30 -52 2 -22 -1 -35 -7 -32 -5 3 -7 12 -4 19 3 8 0 16 -7 19 -9 3 -9 5 0 5 7
1 10 8 7 16 -4 8 1 17 10 21 9 3 13 11 9 17 -3 6 -1 7 5 3 11 -6 17 12 13 36
0 4 7 4 16 1 10 -4 14 -2 9 5 -3 6 -1 14 5 18 7 4 9 3 5 -4 -3 -6 -2 -13 4
-17 5 -3 11 1 11 9 3 32 4 36 12 36 4 0 10 0 13 0 4 0 0 -8 -7 -17 -11 -15
-11 -16 1 -6 9 8 18 9 25 3 8 -7 12 -5 12 5 0 8 -4 12 -9 9 -4 -3 -8 0 -8 5 0
13 17 15 24 3 9 -14 61 -7 58 8 -2 8 3 10 14 6 13 -5 14 -3 6 7 -8 10 -7 13 7
13 11 0 17 -6 14 -13 -3 -7 0 -13 6 -13 6 0 11 9 11 21 0 19 1 19 17 3 16 -16
18 -15 31 5 8 11 22 21 31 21 13 0 14 2 1 9 -8 6 -18 7 -24 4 -5 -3 -6 -1 -2
6 4 6 13 8 19 4 8 -5 8 -2 -1 9 -10 13 -9 18 5 29 9 8 14 9 10 2 -4 -6 -2 -15
5 -19 7 -4 10 -4 6 1 -4 4 -3 16 3 26 7 15 6 17 -6 13 -11 -5 -13 -2 -9 10 3
9 9 14 13 11 4 -2 8 2 8 10 0 8 -5 11 -10 8 -6 -4 -8 0 -4 10 6 16 -3 22 -26
18 -5 -1 -6 3 -3 7 3 5 16 8 28 7 13 -1 15 0 6 2 -10 2 -18 8 -18 12 0 4 -18
7 -39 7 -22 0 -37 -4 -35 -8 3 -5 10 -6 15 -3 5 3 6 -1 3 -10 -5 -12 -10 -13
-17 -6 -14 14 -27 14 -27 0 0 -5 5 -7 10 -4 13 8 7 -32 -6 -42 -5 -5 -6 -4 -2
1 9 11 -9 36 -26 36 -6 0 -4 -5 4 -10 13 -8 12 -10 -2 -10 -10 0 -18 5 -18 10
0 6 -6 10 -14 10 -20 0 -29 17 -15 26 8 5 9 3 4 -7 -8 -12 -6 -12 8 0 13 10
14 17 7 26 -8 9 -7 15 2 19 7 3 2 3 -12 0 -22 -4 -23 -3 -9 8 11 9 14 20 9 33
-4 11 -3 26 3 33 8 10 7 16 -4 23 -10 8 -9 9 8 4 12 -3 25 -1 29 6 4 8 3 9 -4
5 -8 -5 -12 0 -12 13 0 12 5 21 11 21 5 0 7 5 4 10 -4 6 -12 7 -18 3 -7 -4 -6
0 2 10 15 18 26 23 16 7 -4 -6 1 -7 11 -3 11 4 13 8 6 11 -7 2 -9 9 -6 14 4 6
-2 18 -12 26 -18 14 -18 14 4 9 15 -3 20 -2 15 6 -4 7 -8 16 -8 20 0 5 -11 15
-25 23 l-25 15 25 -6 c16 -4 21 -3 12 3 -7 5 -12 15 -10 22 2 7 -5 14 -15 15
-9 2 -15 -1 -11 -6 3 -5 10 -6 16 -3 7 5 8 2 3 -5 -6 -10 -11 -9 -24 3 -14 15
-14 18 -1 26 21 13 3 12 -22 -1 -13 -7 -18 -7 -14 -1 3 6 2 13 -4 17 -5 3 -10
1 -10 -6 0 -7 -2 -10 -5 -7 -10 9 7 38 18 31 6 -4 7 -1 3 6 -6 9 -13 8 -27 -5
-11 -9 -22 -14 -26 -11 -3 4 -1 7 5 7 7 0 12 5 12 11 0 5 -4 8 -9 4 -6 -3 -15
3 -21 12 -9 15 -10 14 -5 -7 5 -19 4 -22 -4 -10 -6 8 -11 12 -11 7 0 -4 -14 0
-30 8 -27 14 -31 14 -36 0 -3 -8 -10 -15 -15 -15 -6 0 -6 7 0 18 7 14 6 19 -4
19 -7 0 -11 -6 -8 -13 3 -8 -3 -13 -14 -12 -10 0 -22 0 -28 -2 -22 -5 -34 1
-29 15 8 20 2 19 -11 -1z m-40 -144 c-3 -5 1 -10 10 -10 9 0 14 4 11 8 -2 4 4
8 14 8 10 0 17 -4 14 -7 -2 -4 5 -14 17 -23 16 -11 27 -12 41 -5 10 5 18 6 17
2 -1 -4 -1 -17 0 -28 1 -16 3 -17 11 -5 5 8 13 11 17 6 4 -4 -1 -14 -11 -22
-23 -16 -14 -19 15 -4 14 8 19 7 19 -1 0 -8 4 -8 15 1 9 8 15 8 15 2 0 -6 -5
-12 -11 -14 -12 -4 -20 -58 -9 -58 12 0 20 28 9 34 -5 2 -4 3 3 2 7 -2 12 -11
10 -20 -2 -10 3 -25 10 -34 11 -13 11 -14 -1 -7 -11 6 -13 2 -9 -19 3 -14 1
-29 -4 -32 -4 -3 -5 -10 -2 -16 4 -6 2 -8 -4 -4 -6 3 -9 19 -7 34 2 15 2 22
-1 15 -3 -7 -13 -9 -22 -6 -14 5 -13 3 2 -9 18 -14 18 -15 -5 -31 -33 -24 -49
-21 -20 3 13 11 21 20 18 20 -3 0 -13 3 -23 7 -13 5 -16 3 -11 -10 3 -9 2 -19
-3 -22 -6 -4 -10 1 -10 10 0 9 -5 13 -11 10 -7 -5 -4 -14 7 -26 9 -10 12 -19
6 -19 -6 0 -16 8 -21 18 -6 9 -11 12 -11 6 0 -22 27 -36 48 -25 16 9 20 8 18
-4 -1 -8 -6 -18 -11 -22 -4 -4 -5 -2 -1 5 4 6 2 12 -3 12 -6 0 -11 -8 -12 -17
0 -11 -3 -13 -6 -5 -2 6 -11 12 -18 12 -8 0 -17 10 -21 22 -5 16 0 27 20 45
15 13 21 23 14 24 -10 0 -10 2 0 6 6 2 12 17 12 33 0 31 -12 39 -52 34 -16 -1
-28 2 -28 7 0 6 4 8 9 5 11 -7 8 21 -4 31 -4 4 -5 3 -1 -4 3 -6 2 -14 -4 -18
-6 -3 -13 1 -17 10 -5 16 -7 16 -15 1 -5 -9 -13 -14 -19 -11 -5 4 -9 1 -9 -5
0 -6 -4 -8 -10 -5 -5 3 -10 1 -10 -5 0 -7 7 -10 15 -6 8 3 15 1 15 -4 0 -6 -6
-10 -14 -10 -8 0 -14 -9 -13 -19 0 -11 5 -17 9 -15 5 3 5 11 2 17 -4 7 -3 8 1
4 11 -9 16 -37 7 -36 -18 3 -32 -2 -32 -11 0 -5 7 -7 15 -4 12 5 14 2 8 -12
-6 -16 -4 -17 8 -7 13 10 16 10 16 -1 0 -14 -14 -16 -34 -3 -6 4 -15 2 -19 -4
-4 -8 -3 -9 4 -5 15 9 16 -6 2 -22 -7 -9 -7 -9 2 -2 7 6 22 10 34 10 12 0 24
3 27 8 2 4 2 1 1 -6 -2 -8 4 -10 20 -6 19 4 26 1 32 -18 4 -12 7 -26 6 -30 -1
-4 5 -5 13 -2 8 4 15 1 15 -4 0 -16 -18 -24 -25 -12 -4 7 -12 7 -25 0 -24 -13
-30 -13 -30 1 0 5 5 7 12 3 7 -4 8 -3 4 5 -5 8 -12 9 -19 3 -8 -6 -18 -3 -30
8 -14 13 -15 20 -6 26 7 4 10 3 6 -3 -13 -21 22 -22 45 -1 l23 20 -29 -17
c-24 -15 -28 -15 -23 -2 4 10 0 14 -11 12 -9 -2 -23 -4 -30 -4 -8 -1 -10 -6
-6 -13 5 -9 3 -9 -9 1 -9 7 -14 17 -11 22 3 5 -2 9 -11 9 -9 0 -14 -4 -11 -9
4 -5 -4 -6 -16 -3 -18 5 -19 7 -6 10 9 2 24 15 33 30 16 26 16 26 -2 7 -18
-20 -68 -31 -57 -13 3 5 -2 19 -13 31 -15 18 -15 19 -1 8 16 -12 17 -10 13 23
-3 19 0 38 5 41 6 4 7 12 3 18 -4 7 0 7 10 -1 14 -12 15 -11 8 16 -8 27 -7 29
13 24 l21 -5 -20 19 c-12 10 -15 15 -8 10 18 -12 46 1 37 16 -5 7 5 5 20 -6
16 -10 26 -14 23 -10 -5 10 9 54 18 54 4 0 3 -4 0 -10z m85 -15 c11 -13 10
-14 -4 -9 -9 3 -16 10 -16 15 0 13 6 11 20 -6z m297 9 c-3 -3 -12 -4 -19 -1
-8 3 -5 6 6 6 11 1 17 -2 13 -5z m-567 -79 c-5 -6 -6 -16 -2 -21 4 -4 -1 -2
-11 5 -12 10 -14 17 -7 26 5 6 6 16 2 21 -4 4 1 2 11 -5 12 -10 14 -17 7 -26z
m570 25 c0 -5 -5 -10 -11 -10 -5 0 -7 5 -4 10 3 6 8 10 11 10 2 0 4 -4 4 -10z
m-350 -63 c0 -7 -4 -6 -10 3 -8 12 -10 12 -10 1 0 -8 -3 -12 -6 -8 -9 9 6 28
17 22 5 -4 9 -12 9 -18z m73 -21 c-7 -27 -11 -29 -21 -9 -10 18 -9 21 6 19 9
-2 16 -6 15 -10z m-313 -76 c0 -5 -5 -10 -11 -10 -5 0 -7 5 -4 10 3 6 8 10 11
10 2 0 4 -4 4 -10z m393 -34 c4 -10 1 -13 -8 -9 -8 3 -12 9 -9 14 7 12 11 11
17 -5z m162 -36 c3 -6 -1 -7 -9 -4 -18 7 -21 14 -7 14 6 0 13 -4 16 -10z m128
-25 c-3 -9 -8 -14 -10 -11 -3 3 -2 9 2 15 9 16 15 13 8 -4z m-646 -37 c-3 -8
-6 -5 -6 6 -1 11 2 17 5 13 3 -3 4 -12 1 -19z m-177 -28 c6 -11 8 -20 6 -20
-3 0 -10 9 -16 20 -6 11 -8 20 -6 20 3 0 10 -9 16 -20z m813 -117 c-5 -11 -8
-12 -13 -2 -5 7 -6 19 -3 26 5 11 8 12 13 2 5 -7 6 -19 3 -26z m-823 23 c0
-11 -19 -15 -25 -6 -3 5 1 10 9 10 9 0 16 -2 16 -4z m328 -40 c-7 -8 -15 -12
-17 -11 -5 6 10 25 20 25 5 0 4 -6 -3 -14z m388 -4 c0 -12 -8 -18 -24 -18
l-23 0 23 18 c13 10 23 18 23 18 1 0 1 -8 1 -18z m-316 -164 c0 -6 -6 -5 -15
2 -8 7 -15 14 -15 16 0 2 7 1 15 -2 8 -4 15 -11 15 -16z m115 -58 c-3 -5 -12
-10 -18 -10 -7 0 -6 4 3 10 19 12 23 12 15 0z m-175 -270 c0 -5 -2 -10 -4 -10
-3 0 -8 5 -11 10 -3 6 -1 10 4 10 6 0 11 -4 11 -10z"/>
<path d="M890 1220 c0 -5 5 -10 11 -10 5 0 7 5 4 10 -3 6 -8 10 -11 10 -2 0
-4 -4 -4 -10z"/>
<path d="M810 1179 c0 -5 5 -7 10 -4 6 3 10 8 10 11 0 2 -4 4 -10 4 -5 0 -10
-5 -10 -11z"/>
<path d="M1025 1139 c-4 -6 -5 -12 -2 -15 2 -3 7 2 10 11 7 17 1 20 -8 4z"/>
<path d="M799 1138 c-5 -18 -6 -38 -1 -34 7 8 12 36 6 36 -2 0 -4 -1 -5 -2z"/>
<path d="M740 1100 c0 -5 5 -10 11 -10 8 0 7 -6 -2 -17 -11 -15 -11 -16 1 -6
19 17 21 43 4 43 -8 0 -14 -4 -14 -10z"/>
<path d="M1044 1064 c-18 -14 -18 -15 4 -4 12 6 22 13 22 15 0 8 -5 6 -26 -11z"/>
<path d="M996 1055 c-3 -8 -1 -15 4 -15 6 0 10 7 10 15 0 8 -2 15 -4 15 -2 0
-6 -7 -10 -15z"/>
<path d="M745 1039 c-6 -8 -4 -10 5 -4 10 6 12 4 6 -11 -6 -15 -5 -17 5 -6 9
9 10 15 2 23 -8 8 -13 7 -18 -2z"/>
<path d="M910 940 c0 -5 5 -10 10 -10 6 0 10 5 10 10 0 6 -4 10 -10 10 -5 0
-10 -4 -10 -10z"/>
<path d="M630 1060 c-13 -8 -12 -10 3 -10 9 0 17 5 17 10 0 12 -1 12 -20 0z"/>
<path d="M1229 1050 c-14 -11 -18 -19 -11 -20 7 0 10 -5 6 -12 -4 -7 -3 -8 5
-4 6 4 9 12 5 17 -3 6 2 17 12 24 11 8 16 15 13 15 -4 0 -17 -9 -30 -20z"/>
<path d="M515 900 c3 -5 8 -10 11 -10 2 0 4 5 4 10 0 6 -5 10 -11 10 -5 0 -7
-4 -4 -10z"/>
<path d="M647 889 c7 -7 15 -10 18 -7 3 3 -2 9 -12 12 -14 6 -15 5 -6 -5z"/>
<path d="M550 720 c0 -5 9 -8 20 -7 21 1 18 10 -5 13 -8 1 -15 -2 -15 -6z"/>
<path d="M860 661 c0 -6 4 -13 10 -16 6 -3 7 1 4 9 -7 18 -14 21 -14 7z"/>
<path d="M878 603 c7 -3 16 -2 19 1 4 3 -2 6 -13 5 -11 0 -14 -3 -6 -6z"/>
<path d="M455 332 c4 -12 3 -22 -2 -21 -21 4 -43 -2 -43 -12 0 -5 4 -8 9 -4 5
3 13 0 17 -6 4 -8 3 -9 -4 -5 -16 10 -15 -6 1 -24 10 -12 9 -12 -4 -2 -9 6
-20 8 -24 4 -5 -4 -5 -1 0 7 5 9 4 12 -3 7 -16 -10 -15 -26 2 -26 7 0 28 -15
46 -32 18 -18 30 -28 27 -23 -3 6 1 21 10 35 8 14 12 17 9 7 -3 -11 -2 -15 4
-12 6 3 10 0 10 -7 0 -8 5 -6 11 5 8 13 6 21 -5 33 -19 19 -21 31 -3 15 18
-14 30 -2 16 15 -6 7 -18 11 -27 8 -9 -2 -7 1 6 7 23 12 25 36 2 31 -7 -1 -20
3 -29 10 -14 12 -15 11 -2 -4 8 -11 9 -18 3 -18 -6 0 -16 8 -22 18 -9 15 -10
14 -5 -6z m60 -12 c-3 -5 -12 -10 -18 -10 -7 0 -6 4 3 10 19 12 23 12 15 0z
m-35 -76 c0 -8 -19 -13 -24 -6 -3 5 1 9 9 9 8 0 15 -2 15 -3z"/>
<path d="M795 240 c3 -5 8 -10 11 -10 2 0 4 5 4 10 0 6 -5 10 -11 10 -5 0 -7
-4 -4 -10z"/>
<path d="M408 223 c6 -2 10 -9 7 -14 -4 -5 1 -6 10 -2 13 5 14 7 3 14 -7 5
-17 8 -23 8 -5 0 -4 -3 3 -6z"/>
</g>
</svg>
